<svg xmlns="http://www.w3.org/2000/svg" viewBox="0 0 260.98 29.93"><defs><style>.cls-1{fill:#ffc80e;}</style></defs><title>Asset 2logo</title><g id="Layer_2" data-name="Layer 2"><g id="Layer_1-2" data-name="Layer 1"><polygon class="cls-1" points="191.34 0 185.44 0 185.44 29.93 205.41 29.93 205.41 24.28 191.34 24.28 191.34 0"/><path class="cls-1" d="M261,10.34V6.22a3.26,3.26,0,0,0-1-2.41L257.13,1a3.19,3.19,0,0,0-2.33-1H238.43V29.93H254.8a3.2,3.2,0,0,0,2.37-1l2.8-2.8a3.35,3.35,0,0,0,1-2.41v-4.2a3.26,3.26,0,0,0-1-2.41l-2.19-2.19L260,12.75A3.31,3.31,0,0,0,261,10.34Zm-5.9-.64a.42.42,0,0,1-.15.34l-2,2a.48.48,0,0,1-.34.15h-8.27V5.64h9.31a.42.42,0,0,1,.34.15l.95.95a.42.42,0,0,1,.15.34Zm0,10.58v2.57a.42.42,0,0,1-.15.34l-.95.95a.49.49,0,0,1-.34.15h-9.31V17.72h8.19a.41.41,0,0,1,.34.15l2.06,2.06A.42.42,0,0,1,255.08,20.27Z"/><path class="cls-1" d="M173.49,24.13a.42.42,0,0,1-.34.15h-7.84a.42.42,0,0,1-.34-.15l-1.68-1.68a.48.48,0,0,1-.15-.34V7.81a.49.49,0,0,1,.15-.34L165,5.8a.42.42,0,0,1,.34-.15h7.84a.42.42,0,0,1,.34.15L176,8.28l4-4L176.68,1a3.35,3.35,0,0,0-2.41-1H164.19a3.35,3.35,0,0,0-2.41,1l-3.53,3.53a3.31,3.31,0,0,0-1,2.41V23a3.31,3.31,0,0,0,1,2.41l3.53,3.53a3.35,3.35,0,0,0,2.41,1h10.07a3.35,3.35,0,0,0,2.41-1l3.51-3.51-4-4Z"/><path class="cls-1" d="M225.49,22.11a.49.49,0,0,1-.15.34l-1.68,1.68a.42.42,0,0,1-.34.15h-7.12a.42.42,0,0,1-.34-.15l-1.68-1.68a.49.49,0,0,1-.15-.34V0h-5.9V23a3.31,3.31,0,0,0,1,2.41l3.53,3.53a3.35,3.35,0,0,0,2.41,1h9.36a3.35,3.35,0,0,0,2.41-1l3.53-3.53a3.31,3.31,0,0,0,1-2.41V0h-5.9Z"/><path class="cls-1" d="M16.25,24.13a.42.42,0,0,1-.34.15H8.07a.42.42,0,0,1-.34-.15L6.05,22.45a.48.48,0,0,1-.15-.34V7.81a.49.49,0,0,1,.15-.34L7.73,5.8a.42.42,0,0,1,.34-.15h7.84a.42.42,0,0,1,.34.15l2.48,2.48,4-4L19.44,1A3.35,3.35,0,0,0,17,0H6.95A3.35,3.35,0,0,0,4.54,1L1,4.54A3.35,3.35,0,0,0,0,7V23a3.35,3.35,0,0,0,1,2.41l3.53,3.53a3.34,3.34,0,0,0,2.41,1H17a3.35,3.35,0,0,0,2.41-1l3.51-3.51-4-4Z"/><path class="cls-1" d="M45.13,22.11a.49.49,0,0,1-.15.34L43.3,24.13a.42.42,0,0,1-.34.15H35.84a.42.42,0,0,1-.34-.15l-1.68-1.68a.49.49,0,0,1-.15-.34V0h-5.9V23a3.31,3.31,0,0,0,1,2.41l3.53,3.53a3.35,3.35,0,0,0,2.41,1h9.36a3.35,3.35,0,0,0,2.41-1L50,25.39A3.31,3.31,0,0,0,51,23V0h-5.9Z"/><polygon class="cls-1" points="128.57 12.7 121.33 0 114.83 0 125.58 18.27 125.58 29.93 131.48 29.93 131.48 18.27 142.18 0 135.77 0 128.57 12.7"/><path class="cls-1" d="M77.14,1a3.19,3.19,0,0,0-2.33-1H58.44V29.93h5.9V19.43h8.19a.41.41,0,0,1,.34.15l2.06,1.94a.7.7,0,0,1,.15.46v7.95H81V21.25a3.26,3.26,0,0,0-1-2.41l-2.19-2.19L80,14.46A3.31,3.31,0,0,0,81,12V6.22a3.26,3.26,0,0,0-1-2.41ZM75.09,7.08V11.4a.42.42,0,0,1-.15.34l-2,2a.48.48,0,0,1-.34.15H64.34V5.64h9.31a.42.42,0,0,1,.34.15l.95.95A.42.42,0,0,1,75.09,7.08Z"/><path class="cls-1" d="M107.62,1a3.19,3.19,0,0,0-2.33-1H88.92V29.93h5.9V19.43H103a.41.41,0,0,1,.34.15l2.06,2.06c.11.11.15.07.15.22v8.07h5.9V21.25a3.26,3.26,0,0,0-1-2.41l-2.19-2.19,2.19-2.19a3.31,3.31,0,0,0,1-2.41V6.22a3.26,3.26,0,0,0-1-2.41ZM94.82,5.64h9.31a.42.42,0,0,1,.34.15l.95.95a.42.42,0,0,1,.15.34V11.4a.42.42,0,0,1-.15.34l-2,2a.48.48,0,0,1-.34.15H94.82Z"/></g></g></svg>